HIERARCHY
ROOT Pelvis
{
	OFFSET 0.000000 0.000000 0.000000
	CHANNELS 6 Xposition Yposition Zposition Xrotation Yrotation Zrotation
	JOINT LeftUpLeg_virtual
	{
		OFFSET 0.000000 0.000000 0.000000
		CHANNELS 3 Xrotation Yrotation Zrotation
		JOINT LeftUpLeg
		{
			OFFSET 8.479700 -4.795502 -0.379100
			CHANNELS 3 Xrotation Yrotation Zrotation
			JOINT LeftLeg
			{
				OFFSET 0.024144 -32.555107 0.112900
				CHANNELS 3 Xrotation Yrotation Zrotation
				JOINT LeftFoot
				{
					OFFSET -0.024144 -32.638630 -3.012600
					CHANNELS 3 Xrotation Yrotation Zrotation
					JOINT LeftToeBase
					{
						OFFSET 0.970200 -13.225400 11.864200
						CHANNELS 3 Xrotation Yrotation Zrotation
						End Site
						{
							OFFSET 0 0 0
						}
					}
				}
			}
		}
	}
	JOINT RightUpLeg_virtual
	{
		OFFSET 0.000000 0.000000 0.000000
		CHANNELS 3 Xrotation Yrotation Zrotation
		JOINT RightUpLeg
		{
			OFFSET -8.479700 -4.795502 -0.379100
			CHANNELS 3 Xrotation Yrotation Zrotation
			JOINT RightLeg
			{
				OFFSET -0.023144 -32.555092 0.112900
				CHANNELS 3 Xrotation Yrotation Zrotation
				JOINT RightFoot
				{
					OFFSET 0.023144 -32.638641 -3.012700
					CHANNELS 3 Xrotation Yrotation Zrotation
					JOINT RightToeBase
					{
						OFFSET -0.970200 -13.225400 11.864200
						CHANNELS 3 Xrotation Yrotation Zrotation
						End Site
						{
							OFFSET 0 0 0
						}
					}
				}
			}
		}
	}
	JOINT Hips_virtual
	{
		OFFSET 0.000000 0.000000 0.000000
		CHANNELS 3 Xrotation Yrotation Zrotation
		JOINT Hips
		{
			OFFSET -0.000000 -0.000000 -0.000000
			CHANNELS 3 Xrotation Yrotation Zrotation
			JOINT Spine
			{
				OFFSET 0.000000 7.722000 1.166200
				CHANNELS 3 Xrotation Yrotation Zrotation
				JOINT Spine1
				{
					OFFSET 0.000000 12.024101 0.248800
					CHANNELS 3 Xrotation Yrotation Zrotation
					JOINT Spine2
					{
						OFFSET 0.000000 11.502998 -0.491200
						CHANNELS 3 Xrotation Yrotation Zrotation
						JOINT Neck_virtual
						{
							OFFSET 0.000000 0.000000 0.000000
							CHANNELS 3 Xrotation Yrotation Zrotation
							JOINT Neck
							{
								OFFSET 0.000000 18.430702 -3.123100
								CHANNELS 3 Xrotation Yrotation Zrotation
								JOINT Head
								{
									OFFSET 0.000000 9.051102 1.034000
									CHANNELS 3 Xrotation Yrotation Zrotation
									End Site
									{
										OFFSET 0 0 0
									}
								}
							}
						}
						JOINT LeftShoulder_virtual
						{
							OFFSET 0.000000 0.000000 0.000000
							CHANNELS 3 Xrotation Yrotation Zrotation
							JOINT LeftShoulder
							{
								OFFSET 6.197800 13.665199 -4.064700
								CHANNELS 3 Xrotation Yrotation Zrotation
								JOINT LeftArm
								{
									OFFSET 7.778100 -0.187103 -1.709300
									CHANNELS 3 Xrotation Yrotation Zrotation
									JOINT LeftForeArm
									{
										OFFSET 22.049376 0.000000 0.000000
										CHANNELS 3 Xrotation Yrotation Zrotation
										JOINT LeftHand
										{
											OFFSET 23.009392 0.000000 0.000000
											CHANNELS 3 Xrotation Yrotation Zrotation
											End Site
											{
												OFFSET 0 0 0
											}
										}
									}
								}
							}
						}
						JOINT RightShoulder_virtual
						{
							OFFSET 0.000000 0.000000 0.000000
							CHANNELS 3 Xrotation Yrotation Zrotation
							JOINT RightShoulder
							{
								OFFSET -6.197800 13.665199 -4.064700
								CHANNELS 3 Xrotation Yrotation Zrotation
								JOINT RightArm
								{
									OFFSET -7.778100 -0.187103 -1.709300
									CHANNELS 3 Xrotation Yrotation Zrotation
									JOINT RightForeArm
									{
										OFFSET -22.049376 0.000000 0.000000
										CHANNELS 3 Xrotation Yrotation Zrotation
										JOINT RightHand
										{
											OFFSET -23.009392 0.000000 0.000000
											CHANNELS 3 Xrotation Yrotation Zrotation
											End Site
											{
												OFFSET 0 0 0
											}
										}
									}
								}
							}
						}
					}
				}
			}
		}
	}
}
MOTION
Frames: 12
Frame Time: 0.03333333
153.384521 10.123314 -29.641701 0.000000 0.000000 0.000000 -125.674661 -25.586025 50.693790 -78.794503 10.451149 5.285940 118.259439 -3.808988 -3.318779 -5.914917 -3.363308 -6.873578 0.000000 0.000000 0.000000 -125.674661 -25.586025 50.693790 -100.048099 -5.060953 1.693852 85.290355 2.707030 2.880021 -14.178281 0.788026 16.811175 0.000000 0.000000 0.000000 -125.674661 -25.586025 50.693790 0.000000 0.000000 0.000002 12.095913 2.889020 1.797397 24.200993 5.707153 2.256763 0.000000 0.000000 0.000000 24.200984 5.707173 2.256768 56.768103 -4.709006 -18.365632 0.000000 0.000000 0.000000 24.200984 5.707173 2.256768 0.826486 4.176647 27.061196 -21.500732 -16.600695 -7.566929 -179.751468 -71.255259 -179.765962 0.000000 0.000000 0.000000 24.200984 5.707173 2.256768 2.759741 8.250652 -10.588906 -57.649044 -5.834118 42.145354 -179.941388 60.236627 179.933479 0.000000 0.000000 0.000000 
153.675079 8.864380 -30.230598 0.000000 0.000000 0.000000 -125.073304 -20.238305 55.341761 -73.078707 8.856629 4.063253 118.210617 -4.016264 -3.337383 -6.952205 -4.734533 -9.544849 0.000000 0.000000 0.000000 -125.073304 -20.238305 55.341761 -95.571408 -6.109369 1.461195 85.758817 2.809013 2.897287 -15.553106 0.460107 15.517061 0.000000 0.000000 0.000000 -125.073304 -20.238305 55.341761 -0.000001 0.000001 -0.000001 12.106343 2.968471 2.060287 24.205446 6.078917 2.810435 0.000000 0.000000 0.000000 24.205473 6.078900 2.810421 57.480365 -3.925612 -18.447417 0.000000 0.000000 0.000000 24.205473 6.078900 2.810421 0.899510 3.368697 24.482584 -14.606295 -19.867045 -3.868296 -179.645136 -75.575633 -179.661993 0.000000 0.000000 0.000000 24.205473 6.078900 2.810421 3.074224 7.560855 -12.803214 -40.315468 -8.927974 48.040112 -179.914423 63.209344 179.909887 0.000000 0.000000 0.000000 
154.203705 8.165688 -30.783752 0.000000 0.000000 0.000000 -125.056133 -14.683845 60.177675 -68.232128 7.582036 2.922774 118.011872 -4.182783 -3.354062 -7.278736 -4.955081 -10.954781 0.000000 0.000000 0.000000 -125.056133 -14.683845 60.177675 -91.485528 -6.492065 0.745086 85.843259 2.817769 2.898350 -16.765290 0.218673 14.280507 0.000000 0.000000 0.000000 -125.056133 -14.683845 60.177675 0.000002 -0.000002 0.000001 12.048565 3.007568 2.313652 24.076792 6.263979 3.298514 0.000000 0.000000 0.000000 24.076775 6.263993 3.298506 58.211844 -3.060415 -17.835299 0.000000 0.000000 0.000000 24.076775 6.263993 3.298506 1.106685 2.229516 21.865695 -8.044700 -21.912758 0.331391 -179.495678 -79.484475 -179.516264 0.000000 0.000000 0.000000 24.076775 6.263993 3.298506 3.006496 6.979972 -13.209523 -24.883245 -9.196738 51.059301 -179.855683 71.346537 179.867540 0.000000 0.000000 0.000000 
155.197601 7.659698 -31.305946 0.000000 0.000000 0.000000 -125.555788 -8.632201 65.272969 -65.112651 7.063674 1.923419 117.415132 -4.228600 -3.361240 -5.832021 -3.213122 -9.960704 0.000000 0.000000 0.000000 -125.555788 -8.632201 65.272969 -88.633842 -5.871045 -0.607402 85.513115 2.725437 2.882554 -17.462511 0.387085 13.477512 0.000000 0.000000 0.000000 -125.555788 -8.632201 65.272969 -0.000001 0.000001 -0.000001 11.865452 2.973467 2.527350 23.705773 6.193823 3.640058 0.000000 0.000000 0.000000 23.705761 6.193820 3.640065 58.660274 -2.363936 -16.804110 0.000000 0.000000 0.000000 23.705761 6.193820 3.640065 1.311800 1.043496 19.573570 -2.184751 -21.315398 2.321621 -179.446541 -80.889623 -179.470980 0.000000 0.000000 0.000000 23.705761 6.193820 3.640065 2.058695 6.641521 -9.781852 -17.790266 -3.547553 48.458693 -179.453494 86.246520 179.482523 0.000000 0.000000 0.000000 
156.427277 7.637791 -31.779827 0.000000 0.000000 0.000000 -126.544349 -2.448559 70.633711 -63.522576 7.663101 1.543957 116.553517 -4.190918 -3.361705 -3.347808 0.284924 -7.305894 0.000000 0.000000 0.000000 -126.544349 -2.448559 70.633711 -86.563659 -4.653982 -2.113732 85.051551 2.581429 2.858769 -17.949951 0.748505 13.001910 0.000000 0.000000 0.000000 -126.544349 -2.448559 70.633711 -0.000001 -0.000001 -0.000001 11.611001 2.928835 2.681165 23.202421 6.009130 3.780228 0.000000 0.000000 0.000000 23.202424 6.009110 3.780216 59.079770 -1.919134 -15.677922 0.000000 0.000000 0.000000 23.202424 6.009110 3.780216 1.507315 -0.163527 17.453281 3.550719 -20.408016 2.406287 -179.445585 -82.283979 -179.474094 0.000000 0.000000 0.000000 23.202424 6.009110 3.780216 0.825811 6.417780 -5.156966 -13.761737 2.862426 43.332462 -0.079185 78.665037 0.117536 0.000000 0.000000 0.000000 
157.687531 8.547928 -32.205910 0.000000 0.000000 0.000000 -127.936656 3.864325 76.176922 -64.767802 11.439613 1.964618 114.455208 -4.142345 -3.388289 2.694255 6.493480 0.267252 0.000000 0.000000 0.000000 -127.936656 3.864325 76.176922 -85.099690 -3.050269 -3.037791 84.962294 2.430752 2.838626 -18.733233 1.297792 12.785419 0.000000 0.000000 0.000000 -127.936656 3.864325 76.176922 0.000000 0.000003 0.000000 11.295389 2.939578 2.725298 22.590984 5.824390 3.596280 0.000000 0.000000 0.000000 22.590982 5.824406 3.596280 59.733822 -1.987315 -14.999980 0.000000 0.000000 0.000000 22.590982 5.824406 3.596280 1.646747 -1.225754 15.610609 10.021674 -21.880842 -0.727391 -179.217265 -86.415096 -179.249558 0.000000 0.000000 0.000000 22.590982 5.824406 3.596280 -0.263020 6.288282 -1.322779 -8.685675 5.405049 37.329047 -0.009483 70.951206 0.044797 0.000000 0.000000 0.000000 
159.070618 9.686058 -32.533016 0.000000 0.000000 0.000000 -129.956261 9.892580 81.940816 -67.799538 18.714484 2.454983 110.755622 -2.304153 -3.292561 11.072790 13.319324 12.565214 0.000000 0.000000 0.000000 -129.956261 9.892580 81.940816 -84.123192 -0.939701 -3.753729 84.636863 2.301606 2.816019 -18.997435 1.798493 13.041858 0.000000 0.000000 0.000000 -129.956261 9.892580 81.940816 0.000000 0.000003 -0.000001 11.001937 2.986499 2.673329 22.027375 5.656531 3.235584 0.000000 0.000000 0.000000 22.027358 5.656563 3.235589 60.269999 -2.313304 -14.397223 0.000000 0.000000 0.000000 22.027358 5.656563 3.235589 1.710714 -2.274089 13.636456 15.758971 -23.274102 -5.022782 -3.292325 -89.561655 -3.323313 0.000000 0.000000 0.000000 22.027358 5.656563 3.235589 -1.165713 6.257460 1.833318 -5.033709 6.051736 32.557746 0.007216 66.069451 0.018581 0.000000 0.000000 0.000000 
160.562729 10.346832 -32.684258 0.000000 0.000000 0.000000 -132.724523 15.362248 87.836465 -71.463887 25.274434 6.123370 109.792053 -0.476758 -3.138315 10.504477 16.391735 17.992523 0.000000 0.000000 0.000000 -132.724523 15.362248 87.836465 -83.447624 1.961469 -4.410316 83.262151 2.217121 2.781485 -17.715803 2.043393 14.299327 0.000000 0.000000 0.000000 -132.724523 15.362248 87.836465 0.000000 0.000003 0.000000 10.818508 3.060762 2.465546 21.677166 5.553406 2.754153 0.000000 0.000000 0.000000 21.677163 5.553394 2.754143 60.532729 -2.811132 -13.800060 0.000000 0.000000 0.000000 21.677163 5.553394 2.754143 1.663163 -3.319573 11.177870 19.512947 -22.837129 -9.092490 -0.455009 -88.472991 -0.484751 0.000000 0.000000 0.000000 21.677163 5.553394 2.754143 -1.675644 6.372930 3.702692 -3.849266 4.957310 32.425012 0.012355 62.562689 0.005477 0.000000 0.000000 0.000000 
162.192841 11.132393 -32.666687 0.000000 0.000000 0.000000 -136.273462 20.146505 93.879017 -76.003347 31.220552 11.493898 110.768183 0.560463 -3.030886 6.765491 15.911472 21.247979 0.000000 0.000000 0.000000 -136.273462 20.146505 93.879017 -83.025922 4.806157 -4.903442 81.789166 2.159600 2.747778 -15.985033 2.103411 15.498722 0.000000 0.000000 0.000000 -136.273462 20.146505 93.879017 -0.000001 -0.000001 0.000001 10.735620 3.148071 2.252334 21.522614 5.512689 2.337336 0.000000 0.000000 0.000000 21.522616 5.512704 2.337348 60.185639 -3.260757 -12.883898 0.000000 0.000000 0.000000 21.522616 5.512704 2.337348 1.497874 -4.521687 8.152480 21.699986 -20.999142 -12.200645 -0.161290 -87.714580 -0.189076 0.000000 0.000000 0.000000 21.522616 5.512704 2.337348 -1.864386 6.542014 4.453410 -5.383541 2.863474 34.629903 0.013958 58.758273 -0.000078 0.000000 0.000000 0.000000 
164.012100 12.470177 -32.436066 0.000000 0.000000 0.000000 -140.763259 24.038706 99.950495 -79.935138 36.578252 16.522861 113.120732 0.751429 -2.998365 3.616392 10.776824 23.987257 0.000000 0.000000 0.000000 -140.763259 24.038706 99.950495 -82.779147 6.769429 -5.194612 81.012382 2.152555 2.732282 -14.622323 1.706098 15.656575 0.000000 0.000000 0.000000 -140.763259 24.038706 99.950495 -0.000001 0.000002 -0.000001 10.796751 3.207918 2.146936 21.645552 5.544145 2.199045 0.000000 0.000000 0.000000 21.645546 5.544170 2.199060 58.824075 -3.532135 -11.187940 0.000000 0.000000 0.000000 21.645546 5.544170 2.199060 1.178381 -6.126291 4.097982 22.142432 -17.086398 -12.744821 -0.078962 -85.231287 -0.107860 0.000000 0.000000 0.000000 21.645546 5.544170 2.199060 -1.675310 6.667466 3.829379 -11.317109 0.254507 38.530484 0.013786 51.947072 0.002657 0.000000 0.000000 0.000000 
166.013062 14.087563 -32.105659 0.000000 0.000000 0.000000 -145.817982 27.127136 106.020580 -83.576271 40.090731 20.771780 116.229029 0.283368 -3.020209 1.554337 4.527868 24.552317 0.000000 0.000000 0.000000 -145.817982 27.127136 106.020580 -82.789440 8.127954 -5.319079 80.495897 2.161582 2.723169 -13.186263 1.185356 15.206646 0.000000 0.000000 0.000000 -145.817982 27.127136 106.020580 0.000001 -0.000002 0.000002 10.926228 3.277827 2.144724 21.899215 5.667378 2.278120 0.000000 0.000000 0.000000 21.899227 5.667387 2.278111 56.522732 -3.528124 -9.093208 0.000000 0.000000 0.000000 21.899227 5.667387 2.278111 0.758074 -7.845569 -0.226159 21.273041 -12.717222 -11.997373 -0.070356 -82.194531 -0.103158 0.000000 0.000000 0.000000 21.899227 5.667387 2.278111 -1.287954 6.758708 2.485872 -18.515569 -1.782843 42.608212 0.014647 43.772145 0.008607 0.000000 0.000000 0.000000 
168.233139 15.891239 -31.755886 0.000000 0.000000 0.000000 -151.239035 29.477058 111.942231 -86.627146 40.479164 22.060393 119.518530 -0.351722 -3.060283 0.218055 0.946068 22.431239 0.000000 0.000000 0.000000 -151.239035 29.477058 111.942231 -83.100972 8.599498 -5.310715 80.070950 2.159455 2.712825 -11.562564 0.795880 13.850060 0.000000 0.000000 0.000000 -151.239035 29.477058 111.942231 -0.000001 -0.000001 -0.000003 11.074802 3.409662 2.325079 22.187991 5.921567 2.646491 0.000000 0.000000 0.000000 22.187981 5.921559 2.646502 53.076232 -3.100734 -6.393015 0.000000 0.000000 0.000000 22.187981 5.921559 2.646502 0.242040 -9.616129 -4.352538 19.257054 -8.887954 -10.322899 -0.087644 -79.877758 -0.126692 0.000000 0.000000 0.000000 22.187981 5.921559 2.646502 -0.798919 6.796786 0.779638 -24.231121 -0.951978 44.890544 0.018566 33.457647 0.010592 0.000000 0.000000 0.000000 
